#!OML:ASF I:\Actors\actors\Patient Classification 1\Patient 1\Session 1\Subject1.ASF
:FULLY-SPECIFIED
:DEGREES
709
root 0.663616 17.5267 8.95192 8.10163 -4.80053 -8.87306
lowerback 0.870281 0.284865 5.74567
upperback -8.20037 0.84457 1.86049
thorax -9.11359 0.0623605 -1.30802
lowerneck -15.3827 3.37007 5.94174
upperneck 29.8001 2.13879 3.10094
head 12.5082 2.03589 0.489591
rclavicle 1.36664e-014 -1.90833e-014
rhumerus 41.6289 60.4478 -16.5746
rradius 121.809
rwrist -43.4392
rhand 5.7389 -27.8094
rfingers 7.12502
rthumb 31.0745 -55.1967
lclavicle 1.36664e-014 -1.90833e-014
lhumerus 24.5208 -62.1805 27.764
lradius 90.9152
lwrist 67.4678
lhand 15.79 -14.7502
lfingers 7.12502
lthumb 40.5948 10.2937
rfemur -5.14902 25.0214 24.8852
rtibia 3.54105
rfoot -10.2176 -21.4755
rtoes -0.201939
lfemur 4.70941 -38.6174 -11.9644
ltibia -3.33666
lfoot -18.2015 49.2098
ltoes 8.35195
710
root 0.668416 17.529 8.95355 7.95842 -4.9939 -8.90023
lowerback 0.826785 0.293615 5.83845
upperback -8.15624 0.856376 1.87219
thorax -9.03839 0.0641069 -1.34828
lowerneck -15.3461 3.57948 6.10407
upperneck 29.9425 2.40313 3.07582
head 12.5676 2.17174 0.495857
rclavicle -1.51573e-014 4.41302e-014
rhumerus 42.7345 59.1204 -15.3148
rradius 119.014
rwrist -45.0913
rhand 4.78309 -28.206
rfingers 7.12502
rthumb 30.1631 -55.7636
lclavicle -1.51573e-014 4.41302e-014
lhumerus 24.0244 -62.2015 27.9858
lradius 90.9004
lwrist 67.5146
lhand 15.9067 -14.8268
lfingers 7.12502
lthumb 40.7045 10.1828
rfemur -5.00465 25.0484 24.978
rtibia 3.59272
rfoot -10.1858 -21.3736
rtoes -0.236996
lfemur 4.81582 -37.9898 -11.9751
ltibia -3.2876
lfoot -18.0564 48.7759
ltoes 8.28602
711
root 0.675539 17.5288 8.95422 7.88482 -5.49254 -8.98745
lowerback 0.748548 0.407544 6.10464
upperback -8.11381 1.01288 1.84226
thorax -8.93395 0.122901 -1.5407
lowerneck -15.3391 3.74858 6.2043
upperneck 30.0321 2.58168 3.1886
head 12.6082 2.27943 0.551835
rclavicle 1.53064e-014 -2.74323e-014
rhumerus 44.7587 57.7139 -13.998
rradius 116.247
rwrist -45.7837
rhand 4.01501 -30.633
rfingers 7.12502
rthumb 29.43 -58.322
lclavicle 1.53064e-014 -2.74323e-014
lhumerus 23.7509 -62.2566 28.0059
lradius 90.8453
lwrist 67.4657
lhand 15.8934 -14.9199
lfingers 7.12502
lthumb 40.6919 10.0936
rfemur -4.98104 25.077 25.0732
rtibia 3.66433
rfoot -10.0831 -20.9492
rtoes -0.509081
lfemur 5.09253 -37.5748 -12.06
ltibia -3.33741
lfoot -18.3598 48.7894
ltoes 8.73039
712
root 0.683547 17.5282 8.95791 7.9442 -6.15586 -9.18014
lowerback 0.494296 0.576907 6.58888
upperback -8.08459 1.23724 1.78059
thorax -8.73252 0.200615 -1.8903
lowerneck -15.2741 3.90928 6.40413
upperneck 30.0529 2.73425 3.27253
head 12.6117 2.38105 0.573408
rclavicle -2.23633e-015 -1.59028e-014
rhumerus 47.7434 56.4379 -12.6204
rradius 113.384
rwrist -45.9553
rhand 1.96753 -31.2928
rfingers 7.12502
rthumb 27.4735 -59.3089
lclavicle -2.23633e-015 -1.59028e-014
lhumerus 23.719 -62.3247 27.7532
lradius 90.7902
lwrist 67.4329
lhand 16.1009 -14.9074
lfingers 7.12502
lthumb 40.8869 10.0448
rfemur -5.0666 25.0392 25.2377
rtibia 3.69096
rfoot -9.84708 -20.2909
rtoes -1.44805
lfemur 5.29198 -37.0847 -12.0107
ltibia -3.34136
lfoot -18.9626 48.8306
ltoes 9.41359
713
root 0.690894 17.5282 8.95615 8.02917 -7.03244 -9.27864
lowerback 0.282654 0.776956 7.02471
upperback -8.06044 1.49832 1.67829
thorax -8.55433 0.298424 -2.25699
lowerneck -15.0695 4.11946 6.79676
upperneck 29.9994 2.98655 3.1408
head 12.5661 2.51774 0.490704
rclavicle 1.71452e-014 5.1684e-015
rhumerus 51.3792 55.0541 -11.6961
rradius 110.158
rwrist -45.1129
rhand 1.55902 -31.1932
rfingers 7.12502
rthumb 27.0828 -59.2708
lclavicle 1.71452e-014 5.1684e-015
lhumerus 23.7742 -62.3992 27.3724
lradius 90.7758
lwrist 67.5359
lhand 16.2782 -14.916
lfingers 7.12502
lthumb 41.0534 9.98334
rfemur -5.25998 25.0263 25.251
rtibia 3.77062
rfoot -9.5682 -19.4654
rtoes -2.72478
lfemur 5.42752 -36.4965 -12.0697
ltibia -3.22295
lfoot -19.7751 48.8957
ltoes 10.3361
714
root 0.697884 17.5253 8.92906 7.91508 -8.3569 -8.86403
lowerback 0.671421 1.04827 6.89816
upperback -8.05486 1.87424 1.45045
thorax -8.73627 0.475697 -2.46386
lowerneck -14.8168 4.33737 7.16252
upperneck 29.8781 3.28019 2.9651
head 12.4849 2.66208 0.399325
rclavicle 1.98785e-014 1.11319e-014
rhumerus 55.765 53.8864 -10.7857
rradius 107.416
rwrist -45.5638
rhand 0.152233 -31.273
rfingers 7.12502
rthumb 25.7362 -59.5527
lclavicle 1.98785e-014 1.11319e-014
lhumerus 23.9316 -62.4428 26.9133
lradius 90.8059
lwrist 67.7772
lhand 16.2916 -14.8015
lfingers 7.12502
lthumb 41.066 10.0939
rfemur -5.6318 25.3247 24.6092
rtibia 4.13081
rfoot -9.35217 -18.5851
rtoes -3.6505
lfemur 5.7266 -36.0905 -12.8559
ltibia -3.02941
lfoot -21.0393 49.3711
ltoes 11.9086
715
root 0.706103 17.5274 8.94053 8.19584 -9.28137 -9.41565
lowerback 0.164147 1.31534 7.9779
upperback -7.97533 2.22968 1.43847
thorax -8.29872 0.589988 -3.08665
lowerneck -14.6869 4.51397 7.36309
upperneck 29.7533 3.50921 2.91986
head 12.4206 2.77668 0.378058
rclavicle -2.93207e-015 6.36111e-015
rhumerus 60.2982 52.8157 -10.3158
rradius 104.697
rwrist -45.53
rhand -0.751108 -31.8691
rfingers 7.12502
rthumb 24.8707 -60.2713
lclavicle -2.93207e-015 6.36111e-015
lhumerus 24.3361 -62.4141 26.3151
lradius 90.8438
lwrist 67.9655
lhand 16.2548 -14.6915
lfingers 7.12502
lthumb 41.0314 10.2149
rfemur -5.82192 25.1668 25.1415
rtibia 4.10156
rfoot -9.12269 -17.4773
rtoes -4.07435
lfemur 6.01839 -35.6177 -12.493
ltibia -3.18591
lfoot -21.703 49.7217
ltoes 12.6997
716
root 0.712863 17.5297 8.9323 8.3707 -10.4389 -9.52707
lowerback 0.098287 1.64407 8.51048
upperback -7.93055 2.67503 1.31166
thorax -8.14301 0.773745 -3.54113
lowerneck -14.6906 4.6553 7.48306
upperneck 29.6455 3.66695 2.96751
head 12.3858 2.86354 0.398295
rclavicle -1.03368e-014 8.74653e-015
rhumerus 65.0001 51.946 -10.005
rradius 102.312
rwrist -45.2216
rhand -1.78867 -32.518
rfingers 7.12502
rthumb 23.8761 -61.0539
lclavicle -1.03368e-014 8.74653e-015
lhumerus 24.977 -62.3407 25.5814
lradius 90.8995
lwrist 68.1057
lhand 16.2106 -14.6786
lfingers 7.12502
lthumb 40.9899 10.241
rfemur -6.18503 25.1665 25.096
rtibia 4.22101
rfoot -8.87043 -16.3647
rtoes -4.3031
lfemur 6.22915 -35.1817 -12.613
ltibia -3.17925
lfoot -22.7868 50.1124
ltoes 13.9129
717
root 0.717434 17.5314 8.91845 8.49013 -11.6573 -9.40181
lowerback 0.195599 1.95755 8.71835
upperback -7.88925 3.09952 1.13092
thorax -8.08579 0.964092 -3.87589
lowerneck -14.6525 4.78816 7.59552
upperneck 29.3922 3.80369 3.07544
head 12.2822 2.94423 0.434734
rclavicle 2.39536e-014 -2.5842e-014
rhumerus 69.7794 51.2894 -9.76493
rradius 100.465
rwrist -45.0458
rhand -2.83396 -33.3814
rfingers 7.12502
rthumb 22.8733 -62.0449
lclavicle 2.39536e-014 -2.5842e-014
lhumerus 25.672 -62.2137 24.839
lradius 90.9501
lwrist 68.3096
lhand 16.1092 -14.5692
lfingers 7.12502
lthumb 40.8947 10.3805
rfemur -6.59843 25.2669 24.7746
rtibia 4.40668
rfoot -8.61321 -15.3485
rtoes -4.89251
lfemur 6.40766 -34.7817 -12.9993
ltibia -3.10576
lfoot -24.1528 50.4936
ltoes 15.3463
718
root 0.721053 17.5325 8.90564 8.67221 -12.7139 -9.31761
lowerback 0.254933 2.22241 8.9554
upperback -7.84964 3.45646 0.949586
thorax -8.01092 1.12046 -4.22132
lowerneck -14.4818 4.95376 7.82034
upperneck 28.8814 4.00081 3.11141
head 12.0562 3.04796 0.424533
rclavicle -2.41026e-014 -3.33958e-014
rhumerus 74.1362 50.8768 -9.88243
rradius 99.1967
rwrist -45.3947
rhand -3.48985 -34.3741
rfingers 7.12502
rthumb 22.2438 -63.114
lclavicle -2.41026e-014 -3.33958e-014
lhumerus 26.3 -62.0013 24.2256
lradius 90.9627
lwrist 68.4117
lhand 16.1258 -14.519
lfingers 7.12502
lthumb 40.9103 10.4259
rfemur -7.00982 25.4561 24.5026
rtibia 4.49008
rfoot -8.36303 -14.5441
rtoes -5.40286
lfemur 6.32539 -33.9978 -13.135
ltibia -2.97127
lfoot -24.5847 50.6124
ltoes 15.6563
719
root 0.721853 17.5338 8.89087 8.91033 -13.5445 -9.27143
lowerback 0.353489 2.44128 9.17082
upperback -7.83708 3.7582 0.774264
thorax -7.99334 1.24827 -4.54762
lowerneck -14.1493 5.15019 8.38104
upperneck 28.2013 4.27341 2.81888
head 11.7556 3.17449 0.239823
rclavicle 2.47487e-014 2.90226e-014
rhumerus 77.7317 50.8056 -10.434
rradius 98.6654
rwrist -46.556
rhand -3.93012 -35.2169
rfingers 7.12502
rthumb 21.8211 -64.0067
lclavicle 2.47487e-014 2.90226e-014
lhumerus 26.902 -61.7361 23.7009
lradius 90.9993
lwrist 68.42
lhand 16.2309 -14.5208
lfingers 7.12502
lthumb 41.009 10.3927
rfemur -7.42456 25.625 24.2712
rtibia 4.46623
rfoot -8.105 -13.8983
rtoes -5.5935
lfemur 6.01068 -33.1136 -13.0442
ltibia -2.79071
lfoot -24.3752 50.5839
ltoes 15.2086
720
root 0.717867 17.5351 8.87726 9.13577 -14.1648 -9.22072
lowerback 0.476167 2.61543 9.23976
upperback -7.84301 3.99899 0.618003
thorax -8.02295 1.3541 -4.77155
lowerneck -14.0194 5.31434 8.86574
upperneck 27.7299 4.48998 2.5362
head 11.5781 3.27432 0.0750107
rclavicle 1.59028e-015 -3.97569e-015
rhumerus 80.6001 51.0646 -11.1425
rradius 99.2227
rwrist -48.0899
rhand -4.70304 -36.2931
rfingers 7.12502
rthumb 21.0787 -65.1674
lclavicle 1.59028e-015 -3.97569e-015
lhumerus 27.5221 -61.4865 23.2245
lradius 91.0549
lwrist 68.5519
lhand 16.0098 -14.4661
lfingers 7.12502
lthumb 40.8013 10.5131
rfemur -7.8047 25.7284 24.0578
rtibia 4.4536
rfoot -7.94329 -13.3746
rtoes -5.37488
lfemur 5.73528 -32.575 -12.9623
ltibia -2.67972
lfoot -24.4712 50.6244
ltoes 15.1895
721
root 0.711362 17.5366 8.86456 9.38392 -14.5014 -9.22714
lowerback 0.573127 2.72438 9.25624
upperback -7.89145 4.15145 0.486002
thorax -8.10047 1.41721 -4.93642
lowerneck -14.3462 5.41406 8.83055
upperneck 27.676 4.55772 2.70178
head 11.621 3.321 0.160511
rclavicle -2.59414e-014 6.36111e-015
rhumerus 82.9484 51.5711 -11.7994
rradius 100.666
rwrist -49.1217
rhand -4.54726 -35.8709
rfingers 7.12502
rthumb 21.2284 -64.7285
lclavicle -2.59414e-014 6.36111e-015
lhumerus 28.0721 -61.3056 22.8511
lradius 91.072
lwrist 68.7342
lhand 15.8632 -14.5673
lfingers 7.12502
lthumb 40.6635 10.4551
rfemur -8.17908 25.8256 23.917
rtibia 4.45629
rfoot -7.87493 -13.1059
rtoes -5.03167
lfemur 5.37561 -32.1518 -12.7281
ltibia -2.58243
lfoot -24.4323 50.5748
ltoes 15.1518
722
root 0.705042 17.5394 8.85376 9.63855 -14.5113 -9.3532
lowerback 0.659557 2.74293 9.31227
upperback -7.97212 4.1893 0.406923
thorax -8.22714 1.41944 -5.06171
lowerneck -14.5318 5.49509 8.82822
upperneck 27.6112 4.60619 2.86902
head 11.632 3.36225 0.234256
rclavicle 4.37326e-015 1.19271e-015
rhumerus 84.4352 52.1064 -12.0128
rradius 102.959
rwrist -49.508
rhand -3.73887 -35.6754
rfingers 7.12502
rthumb 22.0047 -64.4436
lclavicle 4.37326e-015 1.19271e-015
lhumerus 28.5466 -61.1759 22.5459
lradius 90.9941
lwrist 68.6391
lhand 15.9365 -14.8062
lfingers 7.12502
lthumb 40.7324 10.1947
rfemur -8.4566 25.8956 23.9482
rtibia 4.39729
rfoot -7.76882 -13.1124
rtoes -5.15511
lfemur 4.96025 -31.9685 -12.3172
ltibia -2.48152
lfoot -24.2467 50.536
ltoes 14.9236
